# xmcd CD database file
#
# Track frame offsets:
#	150
#	18371
#	37161
#	53520
#	65495
#	92212
#	108269
#	133399
#	158933
#	170725
#	200749
#	213181
#	224907
#	241168
#	254349
#	274285
#	293612
#	307794
#	319796
#	334683
#
# Disc length: 4674 seconds
#
# Revision: 5
# Processed by: cddbd v1.5.2PL0 Copyright (c) Steve Scherf et al.
# Submitted via: CDex 1.81
#
DISCID=34124014
DTITLE=Nina Simone - To Be Free 1957-1968 - CD 1
DYEAR=2008
DGENRE=Jazz
TTITLE0=Mood Indigo
TTITLE1=I Loves You, Porgy
TTITLE2=My Baby Just Cares for Me
TTITLE3=Nobody Knows You When You're Down and Out
TTITLE4=You Can Have Him [live]
TTITLE5=Wild Is the Wind [live]
TTITLE6=Trouble in Mind [live]
TTITLE7=When Malindy Sings - Swing Low Sweet Chariot [live]
TTITLE8=See-Line Woman [live]
TTITLE9=Pirate Jenny [live]
TTITLE10=Don't Let Me Be Misunderstood
TTITLE11=I Put a Spell on You
TTITLE12=Ne Me Quitte Pas
TTITLE13=Feeling Good
TTITLE14=Four Women
TTITLE15=My Man's Gone Now
TTITLE16=I Wish I Knew How It Would Feel To Be Free
TTITLE17=To Love Somebody
TTITLE18=Sunday in Savannah [live]
TTITLE19=Backlash Blues [live]
EXTD=YEAR: 2008
EXTT0=
EXTT1=
EXTT2=
EXTT3=
EXTT4=
EXTT5=
EXTT6=
EXTT7=
EXTT8=
EXTT9=
EXTT10=
EXTT11=
EXTT12=
EXTT13=
EXTT14=
EXTT15=
EXTT16=
EXTT17=
EXTT18=
EXTT19=
PLAYORDER=
